# xmcd
#
# Track frame offsets:
# 150
# 9697
# 24015
# 39430
# 57020
# 78440
# 93652
# 106302
# 125890
# 140447
#
# Disc length: 2021 seconds
#
#
# Revision: 1
# Processed by: cddbd v1.5.2PL0 Copyright (c) Steve Scherf et al.
# Submitted via: FreeRIP 2.945 
#
DISCID=7a07e30a
DTITLE=Louis Armstrong - Recopilatorio
DYEAR=1992
DGENRE=Jazz
TTITLE0=What a wonderful world
TTITLE1=When the saints go marchin'in
TTITLE2=C'est si bon
TTITLE3=Cabaret
TTITLE4=Jeepers Creepers
TTITLE5=Mack the knife
TTITLE6=St. Louis blues
TTITLE7=Indiana
TTITLE8=Blueberry Hill
TTITLE9=Hello Dolly
EXTD=YEAR: 1992
EXTT0=
EXTT1=
EXTT2=
EXTT3=
EXTT4=
EXTT5=
EXTT6=
EXTT7=
EXTT8=
EXTT9=
PLAYORDER=
